<mxfile host="app.diagrams.net" modified="2023-11-06T13:11:43.470Z" agent="Mozilla/5.0 (Windows NT 10.0; Win64; x64) AppleWebKit/537.36 (KHTML, like Gecko) Chrome/119.0.0.0 Safari/537.36" etag="wjp3Mp4aERiHHwHu3Zmu" version="22.0.8" type="device">
  <diagram name="Page-1" id="Umyq1f_er-EB1pPoDHaO">
    <mxGraphModel dx="765" dy="1516" grid="1" gridSize="10" guides="1" tooltips="1" connect="1" arrows="1" fold="1" page="1" pageScale="1" pageWidth="850" pageHeight="1100" math="0" shadow="0">
      <root>
        <mxCell id="0" />
        <mxCell id="1" parent="0" />
        <mxCell id="Icv-aGipXtUuHoMX8zvs-42" style="edgeStyle=orthogonalEdgeStyle;rounded=0;orthogonalLoop=1;jettySize=auto;html=1;exitX=0.5;exitY=0;exitDx=0;exitDy=0;entryX=0;entryY=0.25;entryDx=0;entryDy=0;" parent="1" source="Icv-aGipXtUuHoMX8zvs-1" target="Icv-aGipXtUuHoMX8zvs-41" edge="1">
          <mxGeometry relative="1" as="geometry" />
        </mxCell>
        <mxCell id="Icv-aGipXtUuHoMX8zvs-44" value="Create or &lt;br&gt;Manage Network&lt;br&gt;" style="edgeLabel;html=1;align=center;verticalAlign=middle;resizable=0;points=[];" parent="Icv-aGipXtUuHoMX8zvs-42" vertex="1" connectable="0">
          <mxGeometry x="-0.4137" y="-1" relative="1" as="geometry">
            <mxPoint as="offset" />
          </mxGeometry>
        </mxCell>
        <mxCell id="Icv-aGipXtUuHoMX8zvs-1" value="&lt;b&gt;Microcontroller&lt;/b&gt;" style="html=1;dashed=0;whiteSpace=wrap;" parent="1" vertex="1">
          <mxGeometry x="40" y="80" width="100" height="50" as="geometry" />
        </mxCell>
        <mxCell id="Icv-aGipXtUuHoMX8zvs-2" value="D1&amp;nbsp; &amp;nbsp; &amp;nbsp;AD HOC Network" style="html=1;dashed=0;whiteSpace=wrap;shape=mxgraph.dfd.dataStoreID;align=left;spacingLeft=3;points=[[0,0],[0.5,0],[1,0],[0,0.5],[1,0.5],[0,1],[0.5,1],[1,1]];" parent="1" vertex="1">
          <mxGeometry x="260" y="90" width="140" height="30" as="geometry" />
        </mxCell>
        <mxCell id="Icv-aGipXtUuHoMX8zvs-11" style="edgeStyle=orthogonalEdgeStyle;rounded=0;orthogonalLoop=1;jettySize=auto;html=1;exitX=0.5;exitY=0;exitDx=0;exitDy=0;entryX=0.5;entryY=1;entryDx=0;entryDy=0;" parent="1" source="Icv-aGipXtUuHoMX8zvs-5" target="Icv-aGipXtUuHoMX8zvs-10" edge="1">
          <mxGeometry relative="1" as="geometry" />
        </mxCell>
        <mxCell id="Icv-aGipXtUuHoMX8zvs-15" value="Create or Edit Profile" style="edgeLabel;html=1;align=center;verticalAlign=middle;resizable=0;points=[];" parent="Icv-aGipXtUuHoMX8zvs-11" vertex="1" connectable="0">
          <mxGeometry x="-0.1667" y="1" relative="1" as="geometry">
            <mxPoint as="offset" />
          </mxGeometry>
        </mxCell>
        <mxCell id="Icv-aGipXtUuHoMX8zvs-31" style="edgeStyle=orthogonalEdgeStyle;rounded=0;orthogonalLoop=1;jettySize=auto;html=1;exitX=0.75;exitY=0;exitDx=0;exitDy=0;entryX=0.5;entryY=1;entryDx=0;entryDy=0;" parent="1" source="Icv-aGipXtUuHoMX8zvs-5" target="Icv-aGipXtUuHoMX8zvs-30" edge="1">
          <mxGeometry relative="1" as="geometry" />
        </mxCell>
        <mxCell id="Icv-aGipXtUuHoMX8zvs-32" value="Block, Unblock or Mute Other Users" style="edgeLabel;html=1;align=center;verticalAlign=middle;resizable=0;points=[];" parent="Icv-aGipXtUuHoMX8zvs-31" vertex="1" connectable="0">
          <mxGeometry x="0.5791" y="-3" relative="1" as="geometry">
            <mxPoint x="-3" y="-9" as="offset" />
          </mxGeometry>
        </mxCell>
        <mxCell id="Icv-aGipXtUuHoMX8zvs-46" style="edgeStyle=orthogonalEdgeStyle;rounded=0;orthogonalLoop=1;jettySize=auto;html=1;exitX=1;exitY=0.5;exitDx=0;exitDy=0;entryX=0.5;entryY=1;entryDx=0;entryDy=0;startArrow=classic;startFill=1;" parent="1" source="Icv-aGipXtUuHoMX8zvs-5" target="Icv-aGipXtUuHoMX8zvs-39" edge="1">
          <mxGeometry relative="1" as="geometry" />
        </mxCell>
        <mxCell id="Icv-aGipXtUuHoMX8zvs-53" style="edgeStyle=orthogonalEdgeStyle;rounded=0;orthogonalLoop=1;jettySize=auto;html=1;exitX=0;exitY=0.5;exitDx=0;exitDy=0;entryX=0.5;entryY=1;entryDx=0;entryDy=0;startArrow=classic;startFill=1;" parent="1" source="Icv-aGipXtUuHoMX8zvs-5" target="Icv-aGipXtUuHoMX8zvs-51" edge="1">
          <mxGeometry relative="1" as="geometry" />
        </mxCell>
        <mxCell id="Icv-aGipXtUuHoMX8zvs-54" value="Make or Receive&lt;br&gt;Voice &amp;amp; Video&lt;br&gt;Calls" style="edgeLabel;html=1;align=center;verticalAlign=middle;resizable=0;points=[];" parent="Icv-aGipXtUuHoMX8zvs-53" vertex="1" connectable="0">
          <mxGeometry x="0.369" relative="1" as="geometry">
            <mxPoint as="offset" />
          </mxGeometry>
        </mxCell>
        <mxCell id="Icv-aGipXtUuHoMX8zvs-5" value="&lt;b&gt;User&lt;/b&gt;" style="html=1;dashed=0;whiteSpace=wrap;" parent="1" vertex="1">
          <mxGeometry x="280" y="780" width="100" height="50" as="geometry" />
        </mxCell>
        <mxCell id="Icv-aGipXtUuHoMX8zvs-7" style="edgeStyle=orthogonalEdgeStyle;rounded=0;orthogonalLoop=1;jettySize=auto;html=1;exitX=0.5;exitY=0;exitDx=0;exitDy=0;entryX=0.5;entryY=1;entryDx=0;entryDy=0;" parent="1" source="Icv-aGipXtUuHoMX8zvs-6" target="Icv-aGipXtUuHoMX8zvs-2" edge="1">
          <mxGeometry relative="1" as="geometry" />
        </mxCell>
        <mxCell id="Icv-aGipXtUuHoMX8zvs-8" value="Connect to Network" style="edgeLabel;html=1;align=center;verticalAlign=middle;resizable=0;points=[];" parent="Icv-aGipXtUuHoMX8zvs-7" vertex="1" connectable="0">
          <mxGeometry x="-0.1733" y="1" relative="1" as="geometry">
            <mxPoint as="offset" />
          </mxGeometry>
        </mxCell>
        <mxCell id="Icv-aGipXtUuHoMX8zvs-33" style="edgeStyle=orthogonalEdgeStyle;rounded=0;orthogonalLoop=1;jettySize=auto;html=1;exitX=0.5;exitY=0;exitDx=0;exitDy=0;entryX=0.75;entryY=1;entryDx=0;entryDy=0;" parent="1" source="Icv-aGipXtUuHoMX8zvs-29" target="Icv-aGipXtUuHoMX8zvs-6" edge="1">
          <mxGeometry relative="1" as="geometry">
            <Array as="points">
              <mxPoint x="453" y="370" />
              <mxPoint x="355" y="370" />
            </Array>
          </mxGeometry>
        </mxCell>
        <mxCell id="it1YCi2qY0zrmNpoDYlU-3" style="edgeStyle=orthogonalEdgeStyle;rounded=0;orthogonalLoop=1;jettySize=auto;html=1;exitX=0.25;exitY=0;exitDx=0;exitDy=0;entryX=1;entryY=0.25;entryDx=0;entryDy=0;" edge="1" parent="1" source="Icv-aGipXtUuHoMX8zvs-6" target="it1YCi2qY0zrmNpoDYlU-2">
          <mxGeometry relative="1" as="geometry">
            <Array as="points">
              <mxPoint x="305" y="260" />
              <mxPoint x="210" y="260" />
              <mxPoint x="210" y="176" />
            </Array>
          </mxGeometry>
        </mxCell>
        <mxCell id="it1YCi2qY0zrmNpoDYlU-4" value="Save Profile, Block list,&lt;br&gt;&amp;nbsp;Chats &amp;amp; Call History" style="edgeLabel;html=1;align=center;verticalAlign=middle;resizable=0;points=[];" vertex="1" connectable="0" parent="it1YCi2qY0zrmNpoDYlU-3">
          <mxGeometry x="0.0394" relative="1" as="geometry">
            <mxPoint y="-13" as="offset" />
          </mxGeometry>
        </mxCell>
        <mxCell id="Icv-aGipXtUuHoMX8zvs-6" value="&lt;b&gt;AndroCom Application&lt;/b&gt;" style="html=1;dashed=0;whiteSpace=wrap;" parent="1" vertex="1">
          <mxGeometry x="280" y="270" width="100" height="50" as="geometry" />
        </mxCell>
        <mxCell id="Icv-aGipXtUuHoMX8zvs-12" style="edgeStyle=orthogonalEdgeStyle;rounded=0;orthogonalLoop=1;jettySize=auto;html=1;exitX=0.5;exitY=0;exitDx=0;exitDy=0;entryX=0.5;entryY=1;entryDx=0;entryDy=0;startArrow=classic;startFill=1;" parent="1" source="Icv-aGipXtUuHoMX8zvs-10" target="Icv-aGipXtUuHoMX8zvs-6" edge="1">
          <mxGeometry relative="1" as="geometry" />
        </mxCell>
        <mxCell id="Icv-aGipXtUuHoMX8zvs-10" value="2" style="swimlane;fontStyle=0;childLayout=stackLayout;horizontal=1;startSize=20;fillColor=#ffffff;horizontalStack=0;resizeParent=1;resizeParentMax=0;resizeLast=0;collapsible=0;marginBottom=0;swimlaneFillColor=#ffffff;" parent="1" vertex="1">
          <mxGeometry x="277.5" y="390" width="105" height="60" as="geometry" />
        </mxCell>
        <mxCell id="Icv-aGipXtUuHoMX8zvs-13" value="Profile Setup" style="text;html=1;strokeColor=none;fillColor=none;align=center;verticalAlign=middle;whiteSpace=wrap;rounded=0;" parent="Icv-aGipXtUuHoMX8zvs-10" vertex="1">
          <mxGeometry y="20" width="105" height="40" as="geometry" />
        </mxCell>
        <mxCell id="Icv-aGipXtUuHoMX8zvs-18" value="3" style="swimlane;fontStyle=0;childLayout=stackLayout;horizontal=1;startSize=20;fillColor=#ffffff;horizontalStack=0;resizeParent=1;resizeParentMax=0;resizeLast=0;collapsible=0;marginBottom=0;swimlaneFillColor=#ffffff;" parent="1" vertex="1">
          <mxGeometry x="497" y="254" width="105" height="60" as="geometry" />
        </mxCell>
        <mxCell id="Icv-aGipXtUuHoMX8zvs-19" value="Active User Pool" style="text;html=1;strokeColor=none;fillColor=none;align=center;verticalAlign=middle;whiteSpace=wrap;rounded=0;" parent="Icv-aGipXtUuHoMX8zvs-18" vertex="1">
          <mxGeometry y="20" width="105" height="40" as="geometry" />
        </mxCell>
        <mxCell id="Icv-aGipXtUuHoMX8zvs-20" style="edgeStyle=orthogonalEdgeStyle;rounded=0;orthogonalLoop=1;jettySize=auto;html=1;exitX=0.643;exitY=1;exitDx=0;exitDy=0;exitPerimeter=0;entryX=0.5;entryY=0;entryDx=0;entryDy=0;" parent="1" target="Icv-aGipXtUuHoMX8zvs-18" edge="1">
          <mxGeometry relative="1" as="geometry">
            <mxPoint x="377.0200000000001" y="120" as="sourcePoint" />
            <mxPoint x="542.5" y="255" as="targetPoint" />
            <Array as="points">
              <mxPoint x="377" y="160" />
              <mxPoint x="550" y="160" />
            </Array>
          </mxGeometry>
        </mxCell>
        <mxCell id="Icv-aGipXtUuHoMX8zvs-22" value="Create Active User List" style="edgeLabel;html=1;align=center;verticalAlign=middle;resizable=0;points=[];" parent="Icv-aGipXtUuHoMX8zvs-20" vertex="1" connectable="0">
          <mxGeometry x="0.6921" y="1" relative="1" as="geometry">
            <mxPoint as="offset" />
          </mxGeometry>
        </mxCell>
        <mxCell id="Icv-aGipXtUuHoMX8zvs-24" style="edgeStyle=orthogonalEdgeStyle;rounded=0;orthogonalLoop=1;jettySize=auto;html=1;exitX=0;exitY=0.5;exitDx=0;exitDy=0;startArrow=classic;startFill=1;" parent="1" source="Icv-aGipXtUuHoMX8zvs-19" target="Icv-aGipXtUuHoMX8zvs-6" edge="1">
          <mxGeometry relative="1" as="geometry" />
        </mxCell>
        <mxCell id="Icv-aGipXtUuHoMX8zvs-26" style="edgeStyle=orthogonalEdgeStyle;rounded=0;orthogonalLoop=1;jettySize=auto;html=1;exitX=1;exitY=0.25;exitDx=0;exitDy=0;entryX=0.5;entryY=1;entryDx=0;entryDy=0;" parent="1" source="Icv-aGipXtUuHoMX8zvs-5" target="Icv-aGipXtUuHoMX8zvs-19" edge="1">
          <mxGeometry relative="1" as="geometry">
            <mxPoint x="550" y="350" as="targetPoint" />
            <Array as="points">
              <mxPoint x="550" y="792" />
            </Array>
          </mxGeometry>
        </mxCell>
        <mxCell id="Icv-aGipXtUuHoMX8zvs-27" value="View Active User List" style="edgeLabel;html=1;align=center;verticalAlign=middle;resizable=0;points=[];" parent="Icv-aGipXtUuHoMX8zvs-26" vertex="1" connectable="0">
          <mxGeometry x="0.3912" y="-4" relative="1" as="geometry">
            <mxPoint x="1" y="1" as="offset" />
          </mxGeometry>
        </mxCell>
        <mxCell id="Icv-aGipXtUuHoMX8zvs-29" value="4" style="swimlane;fontStyle=0;childLayout=stackLayout;horizontal=1;startSize=20;fillColor=#ffffff;horizontalStack=0;resizeParent=1;resizeParentMax=0;resizeLast=0;collapsible=0;marginBottom=0;swimlaneFillColor=#ffffff;" parent="1" vertex="1">
          <mxGeometry x="400" y="590" width="105" height="60" as="geometry" />
        </mxCell>
        <mxCell id="Icv-aGipXtUuHoMX8zvs-30" value="Privacy Options" style="text;html=1;strokeColor=none;fillColor=none;align=center;verticalAlign=middle;whiteSpace=wrap;rounded=0;" parent="Icv-aGipXtUuHoMX8zvs-29" vertex="1">
          <mxGeometry y="20" width="105" height="40" as="geometry" />
        </mxCell>
        <mxCell id="Icv-aGipXtUuHoMX8zvs-34" value="Block, Unblock or Mute Other Users" style="edgeLabel;html=1;align=center;verticalAlign=middle;resizable=0;points=[];" parent="1" vertex="1" connectable="0">
          <mxGeometry x="453.5406446836553" y="543.5529978256261" as="geometry" />
        </mxCell>
        <mxCell id="Icv-aGipXtUuHoMX8zvs-35" value="D2&amp;nbsp; &amp;nbsp; &amp;nbsp;Local Android Storage" style="html=1;dashed=0;whiteSpace=wrap;shape=mxgraph.dfd.dataStoreID;align=left;spacingLeft=3;points=[[0,0],[0.5,0],[1,0],[0,0.5],[1,0.5],[0,1],[0.5,1],[1,1]];" parent="1" vertex="1">
          <mxGeometry x="40" y="290" width="160" height="30" as="geometry" />
        </mxCell>
        <mxCell id="Icv-aGipXtUuHoMX8zvs-47" style="edgeStyle=orthogonalEdgeStyle;rounded=0;orthogonalLoop=1;jettySize=auto;html=1;exitX=0.5;exitY=0;exitDx=0;exitDy=0;entryX=1;entryY=0.75;entryDx=0;entryDy=0;jumpStyle=line;startArrow=classic;startFill=1;" parent="1" target="Icv-aGipXtUuHoMX8zvs-6" edge="1">
          <mxGeometry relative="1" as="geometry">
            <mxPoint x="380" y="349.9999999999999" as="targetPoint" />
            <mxPoint x="647.5000000000002" y="632.5" as="sourcePoint" />
            <Array as="points">
              <mxPoint x="647" y="350" />
              <mxPoint x="470" y="350" />
              <mxPoint x="470" y="308" />
            </Array>
          </mxGeometry>
        </mxCell>
        <mxCell id="Icv-aGipXtUuHoMX8zvs-48" value="Send or Receive&lt;br&gt;Text Messages" style="edgeLabel;html=1;align=center;verticalAlign=middle;resizable=0;points=[];" parent="Icv-aGipXtUuHoMX8zvs-47" vertex="1" connectable="0">
          <mxGeometry x="-0.4715" y="1" relative="1" as="geometry">
            <mxPoint as="offset" />
          </mxGeometry>
        </mxCell>
        <mxCell id="Icv-aGipXtUuHoMX8zvs-38" value="5" style="swimlane;fontStyle=0;childLayout=stackLayout;horizontal=1;startSize=20;fillColor=#ffffff;horizontalStack=0;resizeParent=1;resizeParentMax=0;resizeLast=0;collapsible=0;marginBottom=0;swimlaneFillColor=#ffffff;" parent="1" vertex="1">
          <mxGeometry x="595" y="590" width="105" height="60" as="geometry" />
        </mxCell>
        <mxCell id="Icv-aGipXtUuHoMX8zvs-39" value="Text Messaging" style="text;html=1;strokeColor=none;fillColor=none;align=center;verticalAlign=middle;whiteSpace=wrap;rounded=0;" parent="Icv-aGipXtUuHoMX8zvs-38" vertex="1">
          <mxGeometry y="20" width="105" height="40" as="geometry" />
        </mxCell>
        <mxCell id="Icv-aGipXtUuHoMX8zvs-40" value="1" style="swimlane;fontStyle=0;childLayout=stackLayout;horizontal=1;startSize=20;fillColor=#ffffff;horizontalStack=0;resizeParent=1;resizeParentMax=0;resizeLast=0;collapsible=0;marginBottom=0;swimlaneFillColor=#ffffff;" parent="1" vertex="1">
          <mxGeometry x="150" y="-30" width="105" height="60" as="geometry" />
        </mxCell>
        <mxCell id="Icv-aGipXtUuHoMX8zvs-41" value="Network Management" style="text;html=1;strokeColor=none;fillColor=none;align=center;verticalAlign=middle;whiteSpace=wrap;rounded=0;" parent="Icv-aGipXtUuHoMX8zvs-40" vertex="1">
          <mxGeometry y="20" width="105" height="40" as="geometry" />
        </mxCell>
        <mxCell id="Icv-aGipXtUuHoMX8zvs-43" style="edgeStyle=orthogonalEdgeStyle;rounded=0;orthogonalLoop=1;jettySize=auto;html=1;exitX=1;exitY=0.25;exitDx=0;exitDy=0;entryX=0.5;entryY=0;entryDx=0;entryDy=0;" parent="1" source="Icv-aGipXtUuHoMX8zvs-41" target="Icv-aGipXtUuHoMX8zvs-2" edge="1">
          <mxGeometry relative="1" as="geometry" />
        </mxCell>
        <mxCell id="Icv-aGipXtUuHoMX8zvs-45" value="Create or &lt;br&gt;Manage Network&lt;br&gt;" style="edgeLabel;html=1;align=center;verticalAlign=middle;resizable=0;points=[];" parent="1" vertex="1" connectable="0">
          <mxGeometry x="330" y="40.00157894736844" as="geometry" />
        </mxCell>
        <mxCell id="Icv-aGipXtUuHoMX8zvs-49" value="Send or Receive&lt;br&gt;Text Messages" style="edgeLabel;html=1;align=center;verticalAlign=middle;resizable=0;points=[];" parent="1" vertex="1" connectable="0">
          <mxGeometry x="647.4953923760813" y="729.9979885529742" as="geometry" />
        </mxCell>
        <mxCell id="Icv-aGipXtUuHoMX8zvs-52" style="edgeStyle=orthogonalEdgeStyle;rounded=0;orthogonalLoop=1;jettySize=auto;html=1;exitX=0.5;exitY=0;exitDx=0;exitDy=0;entryX=0;entryY=0.5;entryDx=0;entryDy=0;startArrow=classic;startFill=1;" parent="1" source="Icv-aGipXtUuHoMX8zvs-50" target="Icv-aGipXtUuHoMX8zvs-6" edge="1">
          <mxGeometry relative="1" as="geometry">
            <Array as="points">
              <mxPoint x="183" y="330" />
              <mxPoint x="230" y="330" />
              <mxPoint x="230" y="295" />
            </Array>
          </mxGeometry>
        </mxCell>
        <mxCell id="Icv-aGipXtUuHoMX8zvs-50" value="6" style="swimlane;fontStyle=0;childLayout=stackLayout;horizontal=1;startSize=20;fillColor=#ffffff;horizontalStack=0;resizeParent=1;resizeParentMax=0;resizeLast=0;collapsible=0;marginBottom=0;swimlaneFillColor=#ffffff;" parent="1" vertex="1">
          <mxGeometry x="130" y="530" width="105" height="60" as="geometry" />
        </mxCell>
        <mxCell id="Icv-aGipXtUuHoMX8zvs-51" value="Voice &amp;amp; Video Calls" style="text;html=1;strokeColor=none;fillColor=none;align=center;verticalAlign=middle;whiteSpace=wrap;rounded=0;" parent="Icv-aGipXtUuHoMX8zvs-50" vertex="1">
          <mxGeometry y="20" width="105" height="40" as="geometry" />
        </mxCell>
        <mxCell id="Icv-aGipXtUuHoMX8zvs-55" value="Make or Receive&lt;br&gt;Voice &amp;amp; Video&lt;br&gt;Calls" style="edgeLabel;html=1;align=center;verticalAlign=middle;resizable=0;points=[];" parent="1" vertex="1" connectable="0">
          <mxGeometry x="182.50209173495136" y="439.99947455471573" as="geometry" />
        </mxCell>
        <mxCell id="Icv-aGipXtUuHoMX8zvs-56" value="7" style="swimlane;fontStyle=0;childLayout=stackLayout;horizontal=1;startSize=20;fillColor=#ffffff;horizontalStack=0;resizeParent=1;resizeParentMax=0;resizeLast=0;collapsible=0;marginBottom=0;swimlaneFillColor=#ffffff;" parent="1" vertex="1">
          <mxGeometry x="155" y="870" width="105" height="60" as="geometry" />
        </mxCell>
        <mxCell id="Icv-aGipXtUuHoMX8zvs-57" value="Call Options" style="text;html=1;strokeColor=none;fillColor=none;align=center;verticalAlign=middle;whiteSpace=wrap;rounded=0;" parent="Icv-aGipXtUuHoMX8zvs-56" vertex="1">
          <mxGeometry y="20" width="105" height="40" as="geometry" />
        </mxCell>
        <mxCell id="Icv-aGipXtUuHoMX8zvs-58" style="edgeStyle=orthogonalEdgeStyle;rounded=0;orthogonalLoop=1;jettySize=auto;html=1;exitX=0;exitY=0.25;exitDx=0;exitDy=0;entryX=0;entryY=0.25;entryDx=0;entryDy=0;" parent="1" source="Icv-aGipXtUuHoMX8zvs-51" target="Icv-aGipXtUuHoMX8zvs-57" edge="1">
          <mxGeometry relative="1" as="geometry">
            <Array as="points">
              <mxPoint x="120" y="560" />
              <mxPoint x="120" y="900" />
            </Array>
          </mxGeometry>
        </mxCell>
        <mxCell id="Icv-aGipXtUuHoMX8zvs-60" value="Mute Mic or &lt;br&gt;Turn-off Camera" style="edgeLabel;html=1;align=center;verticalAlign=middle;resizable=0;points=[];" parent="Icv-aGipXtUuHoMX8zvs-58" vertex="1" connectable="0">
          <mxGeometry x="-0.0997" relative="1" as="geometry">
            <mxPoint x="-5" as="offset" />
          </mxGeometry>
        </mxCell>
        <mxCell id="Icv-aGipXtUuHoMX8zvs-61" value="8" style="swimlane;fontStyle=0;childLayout=stackLayout;horizontal=1;startSize=20;fillColor=#ffffff;horizontalStack=0;resizeParent=1;resizeParentMax=0;resizeLast=0;collapsible=0;marginBottom=0;swimlaneFillColor=#ffffff;" parent="1" vertex="1">
          <mxGeometry x="570" y="30" width="105" height="60" as="geometry" />
        </mxCell>
        <mxCell id="Icv-aGipXtUuHoMX8zvs-62" value="Last Seen" style="text;html=1;strokeColor=none;fillColor=none;align=center;verticalAlign=middle;whiteSpace=wrap;rounded=0;" parent="Icv-aGipXtUuHoMX8zvs-61" vertex="1">
          <mxGeometry y="20" width="105" height="40" as="geometry" />
        </mxCell>
        <mxCell id="Icv-aGipXtUuHoMX8zvs-63" style="edgeStyle=orthogonalEdgeStyle;rounded=0;orthogonalLoop=1;jettySize=auto;html=1;exitX=0.5;exitY=1;exitDx=0;exitDy=0;entryX=1;entryY=0.5;entryDx=0;entryDy=0;" parent="1" source="Icv-aGipXtUuHoMX8zvs-62" target="Icv-aGipXtUuHoMX8zvs-19" edge="1">
          <mxGeometry relative="1" as="geometry" />
        </mxCell>
        <mxCell id="Icv-aGipXtUuHoMX8zvs-64" value="Get Last Seen" style="edgeLabel;html=1;align=center;verticalAlign=middle;resizable=0;points=[];" parent="Icv-aGipXtUuHoMX8zvs-63" vertex="1" connectable="0">
          <mxGeometry x="-0.6119" y="-1" relative="1" as="geometry">
            <mxPoint as="offset" />
          </mxGeometry>
        </mxCell>
        <mxCell id="it1YCi2qY0zrmNpoDYlU-1" value="9" style="swimlane;fontStyle=0;childLayout=stackLayout;horizontal=1;startSize=20;fillColor=#ffffff;horizontalStack=0;resizeParent=1;resizeParentMax=0;resizeLast=0;collapsible=0;marginBottom=0;swimlaneFillColor=#ffffff;" vertex="1" parent="1">
          <mxGeometry x="40" y="146" width="105" height="60" as="geometry" />
        </mxCell>
        <mxCell id="it1YCi2qY0zrmNpoDYlU-2" value="Store Data" style="text;html=1;strokeColor=none;fillColor=none;align=center;verticalAlign=middle;whiteSpace=wrap;rounded=0;" vertex="1" parent="it1YCi2qY0zrmNpoDYlU-1">
          <mxGeometry y="20" width="105" height="40" as="geometry" />
        </mxCell>
        <mxCell id="it1YCi2qY0zrmNpoDYlU-5" style="edgeStyle=orthogonalEdgeStyle;rounded=0;orthogonalLoop=1;jettySize=auto;html=1;exitX=0.5;exitY=1;exitDx=0;exitDy=0;entryX=0.5;entryY=0;entryDx=0;entryDy=0;" edge="1" parent="1" source="it1YCi2qY0zrmNpoDYlU-2" target="Icv-aGipXtUuHoMX8zvs-35">
          <mxGeometry relative="1" as="geometry">
            <Array as="points">
              <mxPoint x="93" y="270" />
              <mxPoint x="120" y="270" />
            </Array>
          </mxGeometry>
        </mxCell>
        <mxCell id="it1YCi2qY0zrmNpoDYlU-6" value="Save Data" style="edgeLabel;html=1;align=center;verticalAlign=middle;resizable=0;points=[];" vertex="1" connectable="0" parent="it1YCi2qY0zrmNpoDYlU-5">
          <mxGeometry x="-0.426" relative="1" as="geometry">
            <mxPoint as="offset" />
          </mxGeometry>
        </mxCell>
      </root>
    </mxGraphModel>
  </diagram>
</mxfile>
